# This file uses centimeters as units for non-parametric coordinates.

mtllib Cloth OBJ.mtl
v -4.414263 0.164427 0.792385
v -4.336996 0.133777 0.801779
v -4.423328 0.128288 0.811006
v -4.516963 0.130914 0.810906
v -4.532363 0.224351 0.801171
v -4.443959 0.251773 0.818652
v -4.365298 0.213140 0.839518
v -4.278585 0.185589 0.855430
v -4.200813 0.128288 0.881631
v -4.101334 0.140633 0.893868
v -4.005283 0.128288 0.903604
v -3.908994 0.128288 0.916215
v -3.811324 0.128975 0.929753
v -3.710621 0.128614 0.941853
v -3.609338 0.128572 0.942253
v -3.512617 0.128289 0.928579
v -3.433437 0.164330 0.915282
v -3.360396 0.166112 0.918404
v -3.323248 0.131171 0.919833
v -3.378178 0.128288 0.930012
v -3.429062 0.128288 0.944565
v -4.394887 0.164399 0.705705
v -4.347693 0.128288 0.712586
v -4.423020 0.128288 0.721847
v -4.506289 0.128288 0.718981
v -4.498816 0.211163 0.712108
v -4.420617 0.234189 0.728351
v -4.346686 0.202919 0.745194
v -4.285408 0.141800 0.764652
v -4.186879 0.128288 0.782731
v -4.088772 0.128851 0.795712
v -3.993506 0.128288 0.804415
v -3.896192 0.128288 0.817584
v -3.799639 0.128288 0.831864
v -3.701772 0.128289 0.843881
v -3.606116 0.128289 0.851945
v -3.513206 0.128551 0.853308
v -3.434338 0.163342 0.854100
v -3.361448 0.167640 0.859170
v -3.322495 0.129001 0.860680
v -3.379353 0.128289 0.865124
v -3.422412 0.128288 0.872991
v -4.372267 0.162433 0.611084
v -4.357497 0.128288 0.617597
v -4.419280 0.128288 0.629062
v -4.486645 0.128288 0.626862
v -4.461359 0.192865 0.625181
v -4.395165 0.208972 0.638070
v -4.323508 0.186978 0.649607
v -4.266421 0.128622 0.665835
v -4.174410 0.128288 0.686532
v -4.074644 0.128426 0.693365
v -3.977288 0.128488 0.696658
v -3.881162 0.128555 0.713377
v -3.784687 0.128288 0.728253
v -3.696927 0.128288 0.744638
v -3.608683 0.128288 0.755904
v -3.518696 0.128490 0.762444
v -3.443739 0.159892 0.767719
v -3.378627 0.172171 0.774858
v -3.331499 0.149185 0.777074
v -3.376835 0.128288 0.782337
v -3.413939 0.128288 0.782945
v -4.338419 0.132596 0.515412
v -4.363839 0.128288 0.517464
v -4.410845 0.128288 0.530379
v -4.464743 0.128288 0.529706
v -4.421780 0.168821 0.539721
v -4.367700 0.188069 0.542927
v -4.303692 0.164018 0.547851
v -4.238500 0.131271 0.563833
v -4.156341 0.128288 0.582181
v -4.045033 0.128465 0.576775
v -3.944166 0.128288 0.579551
v -3.837555 0.128675 0.599494
v -3.754486 0.128691 0.613358
v -3.693325 0.128438 0.630837
v -3.616610 0.128288 0.650992
v -3.531371 0.128466 0.666763
v -3.454596 0.143478 0.677933
v -3.400623 0.165889 0.687063
v -3.352478 0.173216 0.692665
v -3.362162 0.128288 0.698154
v -3.397852 0.128288 0.691858
v -4.342345 0.128288 0.422107
v -4.364473 0.128477 0.426778
v -4.401860 0.128288 0.437177
v -4.446100 0.144176 0.438654
v -4.399593 0.167161 0.450205
v -4.344245 0.167493 0.452834
v -4.279596 0.148672 0.455359
v -4.207053 0.133282 0.465678
v -4.120362 0.128443 0.472285
v -4.016922 0.128412 0.468219
v -3.903579 0.128288 0.468533
v -3.783952 0.128288 0.479793
v -3.723115 0.128346 0.500324
v -3.684256 0.128485 0.523597
v -3.633122 0.128288 0.550129
v -3.556154 0.128288 0.569384
v -3.474984 0.132633 0.586803
v -3.415258 0.149714 0.601191
v -3.369500 0.171340 0.607630
v -3.338116 0.136083 0.614150
v -3.378536 0.128288 0.600466
v -4.349238 0.128288 0.329133
v -4.369489 0.128288 0.334630
v -4.402825 0.128288 0.345677
v -4.416525 0.163544 0.350392
v -4.371050 0.166222 0.360386
v -4.315670 0.156539 0.364421
v -4.244960 0.135414 0.367412
v -4.166994 0.128836 0.370749
v -4.093461 0.128383 0.374171
v -4.004151 0.128401 0.379594
v -3.867045 0.128351 0.373791
v -3.760512 0.128306 0.381710
v -3.708163 0.128320 0.403127
v -3.675565 0.128399 0.430532
v -3.640195 0.128488 0.461189
v -3.579761 0.128288 0.481307
v -3.498386 0.128395 0.497890
v -3.426421 0.139496 0.514662
v -3.372075 0.157665 0.518508
v -3.324417 0.156604 0.521260
v -3.298176 0.128288 0.527915
v -4.357021 0.128288 0.234056
v -4.376114 0.128288 0.240847
v -4.408221 0.128288 0.254443
v -4.391443 0.165174 0.263519
v -4.343806 0.165795 0.273946
v -4.287633 0.139735 0.280380
v -4.210139 0.128658 0.286831
v -4.145482 0.128429 0.292149
v -4.088122 0.128842 0.300514
v -4.001060 0.129831 0.309158
v -3.872045 0.130288 0.302587
v -3.768474 0.129548 0.306447
v -3.706383 0.129770 0.324991
v -3.665371 0.129840 0.350550
v -3.629777 0.128562 0.378370
v -3.581801 0.128363 0.399141
v -3.504261 0.128308 0.412696
v -3.427091 0.128292 0.425030
v -3.369761 0.128590 0.430744
v -3.315285 0.128288 0.431804
v -3.266774 0.128288 0.435018
v -4.359735 0.128288 0.137145
v -4.384861 0.128288 0.147146
v -4.421991 0.140827 0.165239
v -4.382468 0.167738 0.178210
v -4.327786 0.155000 0.189555
v -4.261611 0.129484 0.199171
v -4.186682 0.128486 0.208281
v -4.136698 0.129394 0.217811
v -4.091143 0.133408 0.229527
v -4.008518 0.141407 0.240517
v -3.893092 0.143769 0.242105
v -3.789815 0.142280 0.245554
v -3.713608 0.141564 0.256065
v -3.659328 0.143235 0.275851
v -3.612457 0.137977 0.296758
v -3.559241 0.134908 0.314345
v -3.493077 0.130781 0.328019
v -3.425107 0.128633 0.338771
v -3.360991 0.128695 0.343251
v -3.293973 0.128288 0.341707
v -3.231657 0.128288 0.345990
v -4.355594 0.128288 0.039129
v -4.395148 0.128348 0.052603
v -4.433837 0.160294 0.076938
v -4.377568 0.174775 0.090546
v -4.318558 0.147265 0.102982
v -4.237890 0.128427 0.117827
v -4.167706 0.130226 0.131759
v -4.127925 0.131681 0.143547
v -4.092474 0.151131 0.157481
v -4.010621 0.158962 0.175521
v -3.912166 0.164916 0.196873
v -3.818793 0.169833 0.215157
v -3.734865 0.172849 0.216596
v -3.667020 0.164763 0.218568
v -3.606605 0.156319 0.225419
v -3.543414 0.156018 0.233828
v -3.476876 0.141693 0.241898
v -3.408938 0.132800 0.248911
v -3.345071 0.156377 0.255701
v -3.273687 0.129702 0.252061
v -3.203450 0.128288 0.253702
v -4.341980 0.128288 -0.062836
v -4.403049 0.128288 -0.040890
v -4.442303 0.183362 -0.011795
v -4.374434 0.181735 0.000930
v -4.309894 0.147503 0.015561
v -4.218491 0.128312 0.039175
v -4.150757 0.144204 0.062384
v -4.117070 0.131191 0.073120
v -4.083341 0.153535 0.082355
v -3.999994 0.150292 0.104151
v -3.910560 0.144921 0.137400
v -3.836716 0.152854 0.167275
v -3.759806 0.137766 0.168108
v -3.681731 0.139395 0.156914
v -3.609974 0.143836 0.153014
v -3.539327 0.142766 0.152269
v -3.465640 0.133390 0.154048
v -3.390131 0.132668 0.156642
v -3.333402 0.184538 0.159604
v -3.255015 0.173805 0.156853
v -3.192853 0.128288 0.142270
v -4.353512 0.128288 -0.163270
v -4.425238 0.128288 -0.127403
v -4.445671 0.205179 -0.103697
v -4.368709 0.188189 -0.090624
v -4.300021 0.144753 -0.070158
v -4.204860 0.128288 -0.040414
v -4.135797 0.159119 -0.009312
v -4.106465 0.128837 -0.000552
v -4.058253 0.153694 0.003870
v -3.963405 0.130219 0.027823
v -3.877191 0.133971 0.061917
v -3.833557 0.183485 0.092582
v -3.782660 0.133119 0.083465
v -3.698728 0.128868 0.072993
v -3.618742 0.129363 0.069827
v -3.539249 0.129508 0.067028
v -3.456510 0.129094 0.064579
v -3.373467 0.128884 0.063713
v -3.328103 0.202558 0.060404
v -3.241275 0.197091 0.051745
v -3.219256 0.128288 0.039040
v -4.398182 0.128288 -0.245171
v -4.465052 0.128288 -0.205965
v -4.442511 0.209165 -0.198727
v -4.362476 0.179126 -0.177468
v -4.289811 0.129627 -0.152371
v -4.192305 0.128288 -0.125181
v -4.120010 0.168533 -0.095905
v -4.080957 0.128288 -0.087456
v -4.006947 0.139487 -0.079575
v -3.916051 0.134100 -0.052428
v -3.849375 0.166839 -0.025341
v -3.806480 0.215184 -0.001763
v -3.783812 0.153237 -0.014399
v -3.706786 0.130777 -0.019766
v -3.621967 0.128329 -0.019891
v -3.536469 0.128311 -0.019698
v -3.451800 0.139756 -0.020103
v -3.367952 0.128288 -0.028105
v -3.329373 0.210757 -0.032439
v -3.232694 0.199592 -0.047127
v -3.182403 0.128993 -0.049408
v -4.439416 0.130406 -0.312394
v -4.501573 0.132812 -0.281358
v -4.437201 0.187600 -0.287357
v -4.360582 0.146140 -0.254488
v -4.273675 0.128288 -0.234056
v -4.178632 0.128288 -0.211507
v -4.101870 0.171502 -0.188576
v -4.046763 0.128288 -0.175201
v -3.959069 0.129501 -0.160634
v -3.879418 0.146665 -0.140184
v -3.827380 0.192436 -0.124251
v -3.782187 0.212007 -0.111954
v -3.761354 0.169590 -0.113113
v -3.700699 0.136394 -0.112543
v -3.617848 0.128569 -0.110096
v -3.529702 0.129991 -0.107294
v -3.452889 0.173212 -0.099824
v -3.379988 0.128288 -0.113850
v -3.338578 0.212764 -0.119954
v -3.240149 0.192993 -0.134995
v -3.177532 0.129114 -0.142659
v -4.481952 0.179763 -0.362234
v -4.506503 0.129428 -0.360634
v -4.428240 0.154733 -0.357158
v -4.347255 0.128454 -0.334791
v -4.259140 0.128288 -0.317202
v -4.166459 0.128288 -0.298142
v -4.086401 0.165435 -0.279185
v -4.017281 0.128288 -0.259798
v -3.925970 0.130039 -0.243488
v -3.851492 0.154335 -0.230330
v -3.804169 0.197233 -0.221242
v -3.764429 0.203969 -0.214504
v -3.745938 0.168481 -0.210584
v -3.691243 0.136515 -0.206950
v -3.609523 0.128852 -0.204496
v -3.522508 0.139367 -0.199470
v -3.457392 0.194306 -0.183513
v -3.403496 0.128729 -0.196274
v -3.354089 0.208446 -0.207610
v -3.262090 0.185380 -0.223687
v -3.203984 0.128288 -0.232984
v -4.507904 0.167795 -0.429199
v -4.488920 0.128288 -0.432909
v -4.416188 0.128666 -0.426239
v -4.332473 0.128288 -0.416510
v -4.246565 0.128288 -0.403679
v -4.157727 0.128325 -0.388579
v -4.074684 0.147716 -0.372316
v -3.995738 0.128307 -0.352078
v -3.906650 0.130764 -0.335423
v -3.836137 0.153787 -0.323516
v -3.789898 0.189713 -0.315377
v -3.754473 0.191131 -0.311181
v -3.731280 0.159042 -0.304993
v -3.674749 0.134880 -0.297525
v -3.596395 0.138488 -0.291505
v -3.521141 0.158982 -0.285924
v -3.457438 0.212762 -0.269204
v -3.423732 0.131257 -0.281503
v -3.372165 0.206599 -0.299386
v -3.274207 0.197239 -0.318342
v -3.215256 0.137663 -0.320441
v -4.512140 0.146200 -0.492901
v -4.473209 0.128288 -0.497533
v -4.402818 0.128308 -0.498366
v -4.321052 0.128286 -0.495091
v -4.234393 0.128288 -0.488800
v -4.147044 0.128288 -0.479137
v -4.064500 0.128801 -0.465699
v -3.983147 0.128294 -0.449192
v -3.895571 0.130039 -0.432581
v -3.827051 0.146437 -0.417838
v -3.784054 0.178781 -0.409380
v -3.751147 0.176620 -0.406988
v -3.719554 0.147749 -0.398692
v -3.657383 0.132282 -0.387001
v -3.580864 0.148522 -0.376267
v -3.518645 0.183768 -0.369892
v -3.440242 0.220215 -0.363211
v -3.450568 0.136454 -0.362570
v -3.391724 0.205605 -0.391144
v -3.319538 0.147840 -0.384194
v -3.303811 0.128288 -0.318546
v -4.507079 0.129323 -0.551299
v -4.464875 0.128288 -0.560574
v -4.393346 0.128288 -0.568468
v -4.310332 0.128283 -0.571196
v -4.222788 0.128289 -0.569759
v -4.135801 0.128288 -0.563841
v -4.054742 0.128306 -0.554124
v -3.973994 0.128284 -0.541532
v -3.892607 0.128487 -0.526929
v -3.828691 0.135195 -0.509485
v -3.791396 0.164762 -0.500914
v -3.749616 0.165834 -0.501252
v -3.712983 0.134602 -0.493961
v -3.644405 0.130598 -0.484442
v -3.573186 0.162256 -0.473066
v -3.517649 0.208185 -0.465454
v -3.437075 0.204664 -0.469770
v -3.497129 0.162225 -0.439814
v -3.410779 0.166933 -0.467151
v -3.382758 0.128288 -0.407571
v -3.375629 0.128288 -0.354071
v -4.507629 0.128376 -0.611697
v -4.463791 0.128288 -0.625075
v -4.387250 0.128288 -0.636880
v -4.299883 0.128288 -0.644330
v -4.210539 0.128288 -0.647332
v -4.123984 0.128293 -0.645256
v -4.044021 0.128316 -0.639257
v -3.966460 0.128321 -0.629030
v -3.897392 0.128288 -0.613118
v -3.840801 0.128359 -0.596876
v -3.797988 0.135324 -0.587391
v -3.758567 0.129151 -0.583299
v -3.702534 0.128844 -0.579834
v -3.646027 0.149158 -0.569940
v -3.585329 0.182442 -0.560884
v -3.520198 0.206000 -0.557800
v -3.456137 0.183127 -0.549896
v -3.519862 0.166748 -0.507846
v -3.451039 0.128545 -0.498252
v -3.438791 0.128288 -0.434009
v -3.423078 0.128288 -0.398540
v -4.509746 0.128381 -0.669744
v -4.465064 0.128550 -0.686912
v -4.380872 0.128287 -0.700942
v -4.287327 0.128288 -0.711764
v -4.195541 0.128288 -0.719533
v -4.110373 0.128288 -0.723026
v -4.033497 0.128306 -0.721648
v -3.964335 0.128328 -0.713910
v -3.901441 0.128342 -0.699628
v -3.842855 0.128288 -0.686423
v -3.799617 0.129488 -0.680831
v -3.762532 0.135600 -0.670573
v -3.707681 0.151901 -0.659678
v -3.651652 0.163310 -0.649945
v -3.593058 0.168979 -0.640309
v -3.532281 0.175807 -0.628100
v -3.475352 0.163891 -0.608685
v -3.524695 0.159741 -0.563904
v -3.507883 0.128288 -0.519207
v -3.483273 0.128288 -0.469818
v -3.474320 0.128288 -0.439577
v -4.491296 0.128288 -0.713950
v -4.447159 0.128539 -0.729719
v -4.365332 0.128412 -0.750375
v -4.269829 0.128285 -0.764960
v -4.177535 0.128288 -0.776557
v -4.096268 0.128288 -0.784527
v -4.026578 0.128288 -0.787599
v -3.964692 0.128288 -0.781876
v -3.900374 0.128366 -0.773693
v -3.836872 0.128288 -0.769112
v -3.791212 0.128725 -0.765207
v -3.758009 0.128288 -0.754422
v -3.706511 0.128950 -0.735089
v -3.656609 0.131114 -0.717649
v -3.607048 0.137109 -0.697575
v -3.547664 0.146384 -0.673388
v -3.490059 0.144645 -0.652680
v -3.524094 0.139961 -0.603394
v -3.548415 0.132536 -0.548609
v -3.525339 0.128288 -0.502413
v -3.508711 0.128288 -0.478753
v -4.470037 0.128288 -0.741612
v -4.425188 0.128288 -0.755174
v -4.348217 0.128286 -0.774800
v -4.256944 0.128307 -0.791796
v -4.167468 0.128297 -0.805826
v -4.090134 0.128294 -0.815608
v -4.026599 0.128288 -0.819909
v -3.967393 0.128288 -0.815620
v -3.902934 0.128288 -0.811997
v -3.836030 0.128288 -0.808999
v -3.787438 0.128412 -0.805380
v -3.755196 0.128340 -0.794820
v -3.704041 0.128288 -0.775199
v -3.657254 0.128339 -0.754449
v -3.612100 0.128302 -0.729472
v -3.556684 0.129549 -0.692147
v -3.497706 0.132538 -0.673989
v -3.523515 0.128288 -0.619366
v -3.542436 0.128288 -0.571390
v -3.544345 0.128288 -0.522780
v -3.530860 0.128397 -0.499482
vt 0.000000 0.000000
vt 0.050000 0.000000
vt 0.100000 0.000000
vt 0.150000 0.000000
vt 0.200000 0.000000
vt 0.250000 0.000000
vt 0.300000 0.000000
vt 0.350000 0.000000
vt 0.400000 0.000000
vt 0.450000 0.000000
vt 0.500000 0.000000
vt 0.550000 0.000000
vt 0.600000 0.000000
vt 0.650000 0.000000
vt 0.700000 0.000000
vt 0.750000 0.000000
vt 0.800000 0.000000
vt 0.850000 0.000000
vt 0.900000 0.000000
vt 0.950000 0.000000
vt 1.000000 0.000000
vt 0.000000 0.050000
vt 0.050000 0.050000
vt 0.100000 0.050000
vt 0.150000 0.050000
vt 0.200000 0.050000
vt 0.250000 0.050000
vt 0.300000 0.050000
vt 0.350000 0.050000
vt 0.400000 0.050000
vt 0.450000 0.050000
vt 0.500000 0.050000
vt 0.550000 0.050000
vt 0.600000 0.050000
vt 0.650000 0.050000
vt 0.700000 0.050000
vt 0.750000 0.050000
vt 0.800000 0.050000
vt 0.850000 0.050000
vt 0.900000 0.050000
vt 0.950000 0.050000
vt 1.000000 0.050000
vt 0.000000 0.100000
vt 0.050000 0.100000
vt 0.100000 0.100000
vt 0.150000 0.100000
vt 0.200000 0.100000
vt 0.250000 0.100000
vt 0.300000 0.100000
vt 0.350000 0.100000
vt 0.400000 0.100000
vt 0.450000 0.100000
vt 0.500000 0.100000
vt 0.550000 0.100000
vt 0.600000 0.100000
vt 0.650000 0.100000
vt 0.700000 0.100000
vt 0.750000 0.100000
vt 0.800000 0.100000
vt 0.850000 0.100000
vt 0.900000 0.100000
vt 0.950000 0.100000
vt 1.000000 0.100000
vt 0.000000 0.150000
vt 0.050000 0.150000
vt 0.100000 0.150000
vt 0.150000 0.150000
vt 0.200000 0.150000
vt 0.250000 0.150000
vt 0.300000 0.150000
vt 0.350000 0.150000
vt 0.400000 0.150000
vt 0.450000 0.150000
vt 0.500000 0.150000
vt 0.550000 0.150000
vt 0.600000 0.150000
vt 0.650000 0.150000
vt 0.700000 0.150000
vt 0.750000 0.150000
vt 0.800000 0.150000
vt 0.850000 0.150000
vt 0.900000 0.150000
vt 0.950000 0.150000
vt 1.000000 0.150000
vt 0.000000 0.200000
vt 0.050000 0.200000
vt 0.100000 0.200000
vt 0.150000 0.200000
vt 0.200000 0.200000
vt 0.250000 0.200000
vt 0.300000 0.200000
vt 0.350000 0.200000
vt 0.400000 0.200000
vt 0.450000 0.200000
vt 0.500000 0.200000
vt 0.550000 0.200000
vt 0.600000 0.200000
vt 0.650000 0.200000
vt 0.700000 0.200000
vt 0.750000 0.200000
vt 0.800000 0.200000
vt 0.850000 0.200000
vt 0.900000 0.200000
vt 0.950000 0.200000
vt 1.000000 0.200000
vt 0.000000 0.250000
vt 0.050000 0.250000
vt 0.100000 0.250000
vt 0.150000 0.250000
vt 0.200000 0.250000
vt 0.250000 0.250000
vt 0.300000 0.250000
vt 0.350000 0.250000
vt 0.400000 0.250000
vt 0.450000 0.250000
vt 0.500000 0.250000
vt 0.550000 0.250000
vt 0.600000 0.250000
vt 0.650000 0.250000
vt 0.700000 0.250000
vt 0.750000 0.250000
vt 0.800000 0.250000
vt 0.850000 0.250000
vt 0.900000 0.250000
vt 0.950000 0.250000
vt 1.000000 0.250000
vt 0.000000 0.300000
vt 0.050000 0.300000
vt 0.100000 0.300000
vt 0.150000 0.300000
vt 0.200000 0.300000
vt 0.250000 0.300000
vt 0.300000 0.300000
vt 0.350000 0.300000
vt 0.400000 0.300000
vt 0.450000 0.300000
vt 0.500000 0.300000
vt 0.550000 0.300000
vt 0.600000 0.300000
vt 0.650000 0.300000
vt 0.700000 0.300000
vt 0.750000 0.300000
vt 0.800000 0.300000
vt 0.850000 0.300000
vt 0.900000 0.300000
vt 0.950000 0.300000
vt 1.000000 0.300000
vt 0.000000 0.350000
vt 0.050000 0.350000
vt 0.100000 0.350000
vt 0.150000 0.350000
vt 0.200000 0.350000
vt 0.250000 0.350000
vt 0.300000 0.350000
vt 0.350000 0.350000
vt 0.400000 0.350000
vt 0.450000 0.350000
vt 0.500000 0.350000
vt 0.550000 0.350000
vt 0.600000 0.350000
vt 0.650000 0.350000
vt 0.700000 0.350000
vt 0.750000 0.350000
vt 0.800000 0.350000
vt 0.850000 0.350000
vt 0.900000 0.350000
vt 0.950000 0.350000
vt 1.000000 0.350000
vt 0.000000 0.400000
vt 0.050000 0.400000
vt 0.100000 0.400000
vt 0.150000 0.400000
vt 0.200000 0.400000
vt 0.250000 0.400000
vt 0.300000 0.400000
vt 0.350000 0.400000
vt 0.400000 0.400000
vt 0.450000 0.400000
vt 0.500000 0.400000
vt 0.550000 0.400000
vt 0.600000 0.400000
vt 0.650000 0.400000
vt 0.700000 0.400000
vt 0.750000 0.400000
vt 0.800000 0.400000
vt 0.850000 0.400000
vt 0.900000 0.400000
vt 0.950000 0.400000
vt 1.000000 0.400000
vt 0.000000 0.450000
vt 0.050000 0.450000
vt 0.100000 0.450000
vt 0.150000 0.450000
vt 0.200000 0.450000
vt 0.250000 0.450000
vt 0.300000 0.450000
vt 0.350000 0.450000
vt 0.400000 0.450000
vt 0.450000 0.450000
vt 0.500000 0.450000
vt 0.550000 0.450000
vt 0.600000 0.450000
vt 0.650000 0.450000
vt 0.700000 0.450000
vt 0.750000 0.450000
vt 0.800000 0.450000
vt 0.850000 0.450000
vt 0.900000 0.450000
vt 0.950000 0.450000
vt 1.000000 0.450000
vt 0.000000 0.500000
vt 0.050000 0.500000
vt 0.100000 0.500000
vt 0.150000 0.500000
vt 0.200000 0.500000
vt 0.250000 0.500000
vt 0.300000 0.500000
vt 0.350000 0.500000
vt 0.400000 0.500000
vt 0.450000 0.500000
vt 0.500000 0.500000
vt 0.550000 0.500000
vt 0.600000 0.500000
vt 0.650000 0.500000
vt 0.700000 0.500000
vt 0.750000 0.500000
vt 0.800000 0.500000
vt 0.850000 0.500000
vt 0.900000 0.500000
vt 0.950000 0.500000
vt 1.000000 0.500000
vt 0.000000 0.550000
vt 0.050000 0.550000
vt 0.100000 0.550000
vt 0.150000 0.550000
vt 0.200000 0.550000
vt 0.250000 0.550000
vt 0.300000 0.550000
vt 0.350000 0.550000
vt 0.400000 0.550000
vt 0.450000 0.550000
vt 0.500000 0.550000
vt 0.550000 0.550000
vt 0.600000 0.550000
vt 0.650000 0.550000
vt 0.700000 0.550000
vt 0.750000 0.550000
vt 0.800000 0.550000
vt 0.850000 0.550000
vt 0.900000 0.550000
vt 0.950000 0.550000
vt 1.000000 0.550000
vt 0.000000 0.600000
vt 0.050000 0.600000
vt 0.100000 0.600000
vt 0.150000 0.600000
vt 0.200000 0.600000
vt 0.250000 0.600000
vt 0.300000 0.600000
vt 0.350000 0.600000
vt 0.400000 0.600000
vt 0.450000 0.600000
vt 0.500000 0.600000
vt 0.550000 0.600000
vt 0.600000 0.600000
vt 0.650000 0.600000
vt 0.700000 0.600000
vt 0.750000 0.600000
vt 0.800000 0.600000
vt 0.850000 0.600000
vt 0.900000 0.600000
vt 0.950000 0.600000
vt 1.000000 0.600000
vt 0.000000 0.650000
vt 0.050000 0.650000
vt 0.100000 0.650000
vt 0.150000 0.650000
vt 0.200000 0.650000
vt 0.250000 0.650000
vt 0.300000 0.650000
vt 0.350000 0.650000
vt 0.400000 0.650000
vt 0.450000 0.650000
vt 0.500000 0.650000
vt 0.550000 0.650000
vt 0.600000 0.650000
vt 0.650000 0.650000
vt 0.700000 0.650000
vt 0.750000 0.650000
vt 0.800000 0.650000
vt 0.850000 0.650000
vt 0.900000 0.650000
vt 0.950000 0.650000
vt 1.000000 0.650000
vt 0.000000 0.700000
vt 0.050000 0.700000
vt 0.100000 0.700000
vt 0.150000 0.700000
vt 0.200000 0.700000
vt 0.250000 0.700000
vt 0.300000 0.700000
vt 0.350000 0.700000
vt 0.400000 0.700000
vt 0.450000 0.700000
vt 0.500000 0.700000
vt 0.550000 0.700000
vt 0.600000 0.700000
vt 0.650000 0.700000
vt 0.700000 0.700000
vt 0.750000 0.700000
vt 0.800000 0.700000
vt 0.850000 0.700000
vt 0.900000 0.700000
vt 0.950000 0.700000
vt 1.000000 0.700000
vt 0.000000 0.750000
vt 0.050000 0.750000
vt 0.100000 0.750000
vt 0.150000 0.750000
vt 0.200000 0.750000
vt 0.250000 0.750000
vt 0.300000 0.750000
vt 0.350000 0.750000
vt 0.400000 0.750000
vt 0.450000 0.750000
vt 0.500000 0.750000
vt 0.550000 0.750000
vt 0.600000 0.750000
vt 0.650000 0.750000
vt 0.700000 0.750000
vt 0.750000 0.750000
vt 0.800000 0.750000
vt 0.850000 0.750000
vt 0.900000 0.750000
vt 0.950000 0.750000
vt 1.000000 0.750000
vt 0.000000 0.800000
vt 0.050000 0.800000
vt 0.100000 0.800000
vt 0.150000 0.800000
vt 0.200000 0.800000
vt 0.250000 0.800000
vt 0.300000 0.800000
vt 0.350000 0.800000
vt 0.400000 0.800000
vt 0.450000 0.800000
vt 0.500000 0.800000
vt 0.550000 0.800000
vt 0.600000 0.800000
vt 0.650000 0.800000
vt 0.700000 0.800000
vt 0.750000 0.800000
vt 0.800000 0.800000
vt 0.850000 0.800000
vt 0.900000 0.800000
vt 0.950000 0.800000
vt 1.000000 0.800000
vt 0.000000 0.850000
vt 0.050000 0.850000
vt 0.100000 0.850000
vt 0.150000 0.850000
vt 0.200000 0.850000
vt 0.250000 0.850000
vt 0.300000 0.850000
vt 0.350000 0.850000
vt 0.400000 0.850000
vt 0.450000 0.850000
vt 0.500000 0.850000
vt 0.550000 0.850000
vt 0.600000 0.850000
vt 0.650000 0.850000
vt 0.700000 0.850000
vt 0.750000 0.850000
vt 0.800000 0.850000
vt 0.850000 0.850000
vt 0.900000 0.850000
vt 0.950000 0.850000
vt 1.000000 0.850000
vt 0.000000 0.900000
vt 0.050000 0.900000
vt 0.100000 0.900000
vt 0.150000 0.900000
vt 0.200000 0.900000
vt 0.250000 0.900000
vt 0.300000 0.900000
vt 0.350000 0.900000
vt 0.400000 0.900000
vt 0.450000 0.900000
vt 0.500000 0.900000
vt 0.550000 0.900000
vt 0.600000 0.900000
vt 0.650000 0.900000
vt 0.700000 0.900000
vt 0.750000 0.900000
vt 0.800000 0.900000
vt 0.850000 0.900000
vt 0.900000 0.900000
vt 0.950000 0.900000
vt 1.000000 0.900000
vt 0.000000 0.950000
vt 0.050000 0.950000
vt 0.100000 0.950000
vt 0.150000 0.950000
vt 0.200000 0.950000
vt 0.250000 0.950000
vt 0.300000 0.950000
vt 0.350000 0.950000
vt 0.400000 0.950000
vt 0.450000 0.950000
vt 0.500000 0.950000
vt 0.550000 0.950000
vt 0.600000 0.950000
vt 0.650000 0.950000
vt 0.700000 0.950000
vt 0.750000 0.950000
vt 0.800000 0.950000
vt 0.850000 0.950000
vt 0.900000 0.950000
vt 0.950000 0.950000
vt 1.000000 0.950000
vt 0.000000 1.000000
vt 0.050000 1.000000
vt 0.100000 1.000000
vt 0.150000 1.000000
vt 0.200000 1.000000
vt 0.250000 1.000000
vt 0.300000 1.000000
vt 0.350000 1.000000
vt 0.400000 1.000000
vt 0.450000 1.000000
vt 0.500000 1.000000
vt 0.550000 1.000000
vt 0.600000 1.000000
vt 0.650000 1.000000
vt 0.700000 1.000000
vt 0.750000 1.000000
vt 0.800000 1.000000
vt 0.850000 1.000000
vt 0.900000 1.000000
vt 0.950000 1.000000
vt 1.000000 1.000000
vn 0.473126 0.880984 -0.004292
vn 0.767413 -0.639276 0.049028
vn 0.786219 -0.616502 0.042253
vn 0.589304 0.807776 0.014796
vn 0.008809 -0.999752 0.020443
vn 0.005843 -0.999915 0.011628
vn -0.695138 -0.702081 -0.154482
vn -0.712169 -0.674885 -0.193249
vn -0.771034 0.562018 -0.299403
vn -0.714915 0.617468 -0.328069
vn 0.086509 0.984688 -0.151346
vn 0.093915 0.979512 -0.178146
vn 0.484707 0.865941 -0.123311
vn 0.516708 0.852508 -0.079012
vn 0.467858 0.861442 -0.197554
vn 0.440399 0.892034 -0.101604
vn 0.163808 0.978072 -0.128619
vn 0.107890 0.990953 -0.079825
vn 0.005993 0.998227 -0.059222
vn 0.003463 0.999537 -0.030247
vn 0.035862 0.999040 -0.025164
vn 0.017508 0.999780 -0.011553
vn -0.001495 0.999997 -0.001940
vn -0.000592 1.000000 -0.000003
vn -0.000251 0.999990 -0.004401
vn 0.000153 0.999998 -0.001823
vn 0.001431 0.999991 -0.004107
vn 0.000730 0.999998 -0.002109
vn 0.000246 0.999998 -0.001906
vn -0.000519 0.999999 -0.000975
vn -0.161521 0.986869 -0.000231
vn -0.188305 0.982103 0.003823
vn -0.261046 0.965325 0.001948
vn -0.264019 0.964439 0.012325
vn 0.302628 0.953108 0.000490
vn 0.259520 0.965590 0.016912
vn 0.817517 -0.575637 0.017566
vn 0.916884 -0.393102 -0.069250
vn 0.015710 -0.999845 0.007920
vn 0.063751 -0.997473 -0.031352
vn 0.000009 -1.000000 -0.000007
vn 0.000005 -1.000000 -0.000001
vn 0.521762 -0.851650 0.049563
vn 0.888500 0.450410 0.087741
vn -0.000004 -1.000000 -0.000002
vn -0.768228 -0.572400 -0.286678
vn -0.594507 0.722416 -0.353096
vn 0.088064 0.972276 -0.216618
vn 0.517693 0.855045 -0.029868
vn 0.349797 0.936709 0.014754
vn 0.023190 0.999675 -0.010578
vn -0.000365 1.000000 -0.000903
vn 0.000052 1.000000 -0.000084
vn -0.000337 0.999999 0.001071
vn 0.000823 0.999998 0.001686
vn 0.000447 1.000000 0.000738
vn -0.000989 1.000000 0.000125
vn -0.162397 0.986682 -0.009298
vn -0.287058 0.957713 -0.019599
vn 0.050585 0.998610 0.014813
vn 0.988360 0.125312 -0.086271
vn 0.228228 -0.971172 -0.068829
vn 0.000000 -1.000000 0.000003
vn 0.181447 -0.982869 0.032342
vn 0.548812 -0.829934 0.100078
vn -0.038402 -0.998913 -0.026431
vn -0.877193 -0.376333 -0.298172
vn -0.464230 0.850822 -0.246154
vn 0.098317 0.978934 -0.178948
vn 0.406398 0.913172 -0.030943
vn 0.234408 0.971622 0.031687
vn 0.012985 0.999871 0.009490
vn -0.000026 1.000000 -0.000057
vn -0.000372 1.000000 -0.000879
vn -0.000669 0.999999 -0.000827
vn 0.000901 1.000000 0.000371
vn 0.001480 0.999999 0.000886
vn -0.000101 1.000000 0.000065
vn -0.090857 0.995695 -0.018319
vn -0.253672 0.965571 -0.057656
vn -0.215256 0.975459 -0.046301
vn 0.611968 0.790880 -0.002006
vn 0.574794 -0.817454 -0.037170
vn 0.055424 -0.998420 -0.009290
vn 0.020675 -0.999775 0.004710
vn 0.040392 -0.999131 0.010263
vn -0.207177 -0.975295 -0.076664
vn -0.966411 0.168401 -0.194145
vn -0.250323 0.965528 -0.071377
vn 0.159958 0.983642 -0.082840
vn 0.273659 0.961416 -0.028125
vn 0.127802 0.991797 0.002297
vn 0.016357 0.999864 0.002288
vn 0.000479 1.000000 0.000147
vn 0.000037 1.000000 -0.000481
vn -0.000381 0.999999 -0.001267
vn -0.000183 0.999999 -0.001612
vn 0.001134 0.999999 -0.000334
vn 0.001215 0.999999 0.000216
vn -0.028811 0.999522 -0.011209
vn -0.151993 0.987619 -0.038826
vn -0.297606 0.951927 -0.072569
vn 0.125561 0.991911 -0.018614
vn 0.987784 -0.029299 0.153051
vn 0.341954 -0.932630 0.115191
vn -0.000129 -1.000000 0.000530
vn -0.001868 -0.999998 0.000580
vn -0.538472 -0.837401 -0.093845
vn -0.716895 0.689964 -0.100057
vn 0.027463 0.999576 -0.009718
vn 0.238511 0.970703 -0.029112
vn 0.177571 0.983304 -0.039777
vn 0.056355 0.998235 -0.018722
vn 0.006627 0.999978 -0.000004
vn -0.001005 0.999967 0.008078
vn 0.000643 0.999946 0.010421
vn -0.001134 0.999959 0.009015
vn -0.005938 0.999952 0.007770
vn -0.000176 0.999985 0.005476
vn 0.002492 0.999995 0.001948
vn -0.003982 0.999987 -0.003105
vn -0.056744 0.997913 -0.030810
vn -0.181253 0.978064 -0.102660
vn -0.047226 0.986121 -0.159170
vn 0.367043 0.927345 -0.072877
vn 0.638036 0.765540 0.082817
vn -0.076422 -0.996937 -0.016639
vn 0.000000 -1.000000 -0.000000
vn -0.863335 -0.504435 -0.014102
vn -0.428077 0.903500 -0.020925
vn 0.218922 0.975672 -0.011751
vn 0.251680 0.967291 -0.031694
vn 0.086877 0.995691 -0.032441
vn 0.001723 0.999998 0.000910
vn -0.029790 0.998513 0.045654
vn -0.015077 0.996290 0.084734
vn -0.000352 0.994327 0.106367
vn -0.009637 0.994058 0.108427
vn -0.045006 0.993376 0.105731
vn -0.023687 0.995572 0.090972
vn 0.000786 0.998353 0.057367
vn 0.005121 0.999405 0.034098
vn -0.006086 0.999971 0.004514
vn -0.046084 0.997136 -0.059970
vn -0.030807 0.991116 -0.129386
vn 0.082195 0.992812 -0.086996
vn 0.125228 0.991878 -0.022290
vn -0.255651 -0.966543 -0.020927
vn -0.000726 -1.000000 -0.000197
vn -0.993884 -0.032763 0.105458
vn -0.151530 0.986719 0.058520
vn 0.293417 0.955977 -0.003699
vn 0.188160 0.982058 -0.012574
vn 0.014366 0.999881 -0.005627
vn -0.092649 0.994867 0.040690
vn -0.121848 0.982087 0.143731
vn -0.065784 0.972606 0.222957
vn -0.033492 0.949780 0.311122
vn -0.033161 0.917579 0.396167
vn -0.054417 0.927713 0.369306
vn -0.021402 0.964221 0.264234
vn -0.003789 0.981512 0.191365
vn 0.027366 0.989033 0.145140
vn 0.048591 0.994547 0.092279
vn -0.024138 0.997650 0.064122
vn -0.004902 0.996042 0.088751
vn 0.066515 0.995569 0.066476
vn 0.006439 0.999957 0.006623
vn -0.419721 -0.907567 -0.012500
vn -0.000645 -1.000000 0.000136
vn -0.954889 0.251066 0.158598
vn 0.083203 0.990754 0.107159
vn 0.306320 0.951373 0.032526
vn 0.103637 0.994288 0.025503
vn -0.034699 0.998492 0.042548
vn -0.196567 0.979650 0.040588
vn -0.185621 0.980097 0.070392
vn -0.041988 0.996281 0.075243
vn -0.018976 0.996650 0.079560
vn -0.010541 0.995893 0.089927
vn -0.006170 0.999652 -0.025646
vn 0.014210 0.998300 -0.056520
vn 0.017344 0.999828 0.006560
vn 0.077919 0.996156 0.040033
vn 0.103211 0.993973 0.036959
vn -0.151617 0.986661 0.059261
vn -0.068785 0.975771 0.207702
vn 0.202760 0.954295 0.219569
vn 0.217988 0.963652 0.154454
vn -0.495244 -0.868391 0.025126
vn -0.000155 -1.000000 0.000089
vn -0.861775 0.465962 0.200557
vn 0.239898 0.964006 0.114639
vn 0.320697 0.946297 0.040922
vn 0.004345 0.999479 0.031979
vn -0.043994 0.995682 0.081743
vn -0.144960 0.989378 0.010879
vn -0.120948 0.990095 -0.071291
vn 0.076860 0.990380 -0.115065
vn -0.053619 0.984276 -0.168306
vn 0.058484 0.981928 -0.179993
vn 0.129856 0.964200 -0.231204
vn -0.002836 0.973797 -0.227402
vn 0.001621 0.983532 -0.180726
vn 0.066095 0.989144 -0.131250
vn 0.073042 0.994896 -0.069625
vn -0.350176 0.936430 -0.021793
vn -0.244367 0.953423 0.176832
vn 0.370550 0.901176 0.224888
vn 0.627041 0.768944 0.124682
vn -0.587263 -0.804062 0.092771
vn -0.000002 -1.000000 -0.000001
vn -0.657951 0.731114 0.180478
vn 0.368604 0.929051 0.031566
vn 0.332959 0.942729 -0.020012
vn -0.100432 0.994773 -0.018441
vn -0.017512 0.996501 0.081731
vn 0.104941 0.994444 -0.008313
vn -0.041790 0.995419 -0.085989
vn 0.041812 0.998753 -0.027297
vn -0.345907 0.938053 -0.020121
vn -0.003037 0.992716 0.120436
vn 0.394717 0.913666 0.097025
vn 0.044812 0.998765 -0.021442
vn -0.005944 0.997319 -0.072938
vn -0.000286 0.998660 -0.051750
vn 0.016180 0.999861 -0.004141
vn -0.483941 0.875080 -0.006042
vn -0.392021 0.916779 0.076397
vn 0.486093 0.863943 0.131589
vn 0.852327 0.506613 0.129930
vn -0.788528 -0.603302 0.119376
vn -0.015493 -0.999798 -0.012819
vn -0.339965 0.940382 -0.010293
vn 0.434064 0.892919 -0.119516
vn 0.271400 0.959919 -0.069978
vn -0.190296 0.980541 -0.048247
vn -0.008908 0.997961 0.063198
vn 0.237010 0.971417 0.013247
vn -0.019555 0.998571 -0.049730
vn -0.182548 0.982840 0.026500
vn -0.552673 0.833257 0.015356
vn 0.124991 0.975499 0.181050
vn 0.613733 0.763874 0.199570
vn 0.160901 0.983783 0.079254
vn 0.016658 0.999812 0.009884
vn -0.095163 0.993858 0.056486
vn 0.007270 0.993058 0.117403
vn -0.496563 0.862020 0.101715
vn -0.424751 0.904349 0.041715
vn 0.511122 0.857926 0.052132
vn 0.824970 0.559861 0.077336
vn -0.957754 -0.003240 -0.287569
vn 0.086616 -0.982338 -0.165860
vn -0.090381 0.978025 -0.187880
vn 0.370366 0.910718 -0.182815
vn 0.131434 0.989683 -0.057040
vn -0.226049 0.973085 -0.044817
vn 0.003636 0.999744 0.022322
vn 0.248635 0.967760 0.040263
vn -0.091462 0.995302 -0.031769
vn -0.383592 0.922438 -0.044328
vn -0.542728 0.837711 -0.060722
vn 0.310807 0.945537 0.096741
vn 0.678835 0.717549 0.155905
vn 0.249215 0.966175 0.066312
vn 0.019107 0.999492 0.025514
vn -0.247474 0.964371 0.093513
vn 0.021215 0.990965 0.132435
vn -0.359123 0.918227 0.167004
vn -0.391044 0.919601 0.037665
vn 0.470322 0.876296 -0.104417
vn 0.723822 0.678367 -0.126098
vn 0.065632 0.845156 -0.530475
vn 0.758720 -0.579136 -0.298237
vn 0.020266 0.976628 -0.213980
vn 0.191176 0.975119 -0.112226
vn 0.029403 0.999345 -0.021082
vn -0.185920 0.980879 -0.057534
vn 0.016280 0.998850 -0.045107
vn 0.192478 0.981176 0.015685
vn -0.147137 0.988795 -0.025197
vn -0.460038 0.883378 -0.089490
vn -0.464807 0.877668 -0.116845
vn 0.421998 0.906597 0.000099
vn 0.660064 0.748473 0.064070
vn 0.255535 0.966188 0.034404
vn -0.034324 0.997545 0.061036
vn -0.388696 0.913017 0.123756
vn 0.069709 0.993782 0.086826
vn -0.136050 0.980583 0.141238
vn -0.363888 0.928060 0.079314
vn 0.439554 0.894863 -0.077544
vn 0.693528 0.710473 -0.119356
vn 0.293607 0.947313 -0.128031
vn 0.965109 0.254740 -0.060591
vn 0.019885 0.995604 -0.091527
vn 0.043319 0.998544 -0.032142
vn 0.000158 1.000000 -0.000214
vn -0.097818 0.993443 -0.059187
vn 0.017268 0.995791 -0.090014
vn 0.105808 0.994045 -0.026074
vn -0.144377 0.989036 -0.031048
vn -0.436278 0.894967 -0.093250
vn -0.399792 0.906926 -0.132861
vn 0.464260 0.883641 -0.060338
vn 0.570709 0.821144 0.003690
vn 0.152571 0.988106 0.019228
vn -0.165608 0.982094 0.089811
vn -0.458175 0.878142 0.137630
vn 0.201529 0.976312 0.078750
vn 0.014336 0.983876 0.178275
vn -0.321965 0.946703 0.009625
vn 0.478239 0.833858 -0.275622
vn 0.775681 0.583533 -0.240433
vn 0.139545 0.989707 -0.031749
vn 0.515684 0.852720 -0.083292
vn 0.000292 0.999999 -0.001314
vn 0.000601 1.000000 -0.000481
vn -0.000060 1.000000 -0.000072
vn -0.025682 0.999236 -0.029462
vn 0.008840 0.998623 -0.051706
vn 0.028839 0.999255 -0.025633
vn -0.103367 0.994013 -0.035408
vn -0.391905 0.916074 -0.084966
vn -0.349686 0.928548 -0.124571
vn 0.433140 0.896528 -0.092884
vn 0.437194 0.898164 -0.046512
vn -0.018261 0.999811 -0.006633
vn -0.355469 0.931089 0.081947
vn -0.431474 0.896500 0.100587
vn 0.507875 0.859340 -0.059981
vn 0.282028 0.954709 0.094819
vn -0.155187 0.964649 -0.212999
vn 0.614624 0.237483 -0.752223
vn 0.466123 -0.501338 -0.728965
vn 0.029291 0.999439 -0.016230
vn 0.121826 0.990323 -0.066468
vn 0.000032 1.000000 -0.000063
vn 0.000023 1.000000 -0.000019
vn -0.000024 1.000000 0.000008
vn -0.000785 0.999999 -0.000803
vn 0.000186 0.999999 -0.001349
vn -0.001810 0.999993 -0.003173
vn -0.046671 0.998569 -0.026105
vn -0.279089 0.956463 -0.085374
vn -0.273969 0.943473 -0.186547
vn 0.311746 0.928322 -0.202567
vn 0.237514 0.969205 -0.065027
vn -0.207100 0.975936 0.068247
vn -0.462226 0.878192 0.122993
vn -0.284164 0.958026 0.037913
vn 0.785117 0.575430 -0.229067
vn 0.895362 0.168182 -0.412361
vn 0.209998 0.831933 -0.513603
vn 0.613763 -0.520780 -0.593365
vn 0.195930 -0.965102 -0.173750
vn 0.002117 0.999998 0.000048
vn 0.006430 0.999973 -0.003497
vn 0.000539 1.000000 0.000587
vn -0.000004 1.000000 0.000014
vn -0.000021 1.000000 0.000005
vn -0.000141 1.000000 -0.000019
vn -0.000153 1.000000 0.000047
vn -0.000227 1.000000 -0.000064
vn -0.008574 0.999941 -0.006699
vn -0.101366 0.993833 -0.044959
vn -0.121467 0.982771 -0.139307
vn 0.050410 0.994361 -0.093297
vn -0.089618 0.992866 0.078654
vn -0.311157 0.939931 0.140399
vn -0.391370 0.918795 0.051430
vn -0.076368 0.985276 -0.152967
vn 0.919502 0.242495 -0.309375
vn 0.720482 -0.629864 -0.290133
vn 0.560427 0.156030 -0.813373
vn 0.315308 -0.918483 -0.238683
vn 0.000000 -1.000000 -0.000000
vn 0.000173 1.000000 0.001019
vn -0.001377 0.999999 0.000995
vn 0.001281 0.999998 0.001290
vn 0.000232 1.000000 0.000394
vn -0.000014 1.000000 -0.000021
vn -0.000109 1.000000 -0.000080
vn -0.000175 1.000000 -0.000173
vn -0.000240 1.000000 -0.000041
vn 0.000141 1.000000 0.000128
vn -0.021738 0.999736 -0.007467
vn -0.047156 0.998629 -0.022735
vn -0.086174 0.996095 -0.019209
vn -0.154945 0.987673 -0.022216
vn -0.181204 0.977784 -0.105376
vn -0.146056 0.952764 -0.266288
vn 0.069460 0.911494 -0.405407
vn 0.903628 0.207172 -0.374881
vn 0.496227 -0.867578 0.032688
vn 0.594156 -0.650766 -0.472739
vn 0.001510 -0.999989 -0.004504
vn 0.000000 -1.000000 0.000000
vn -0.000092 0.999999 -0.001411
vn -0.006102 0.999972 -0.004423
vn 0.000720 1.000000 -0.000785
vn 0.000258 1.000000 -0.000008
vn 0.000028 1.000000 0.000152
vn -0.000032 1.000000 0.000001
vn -0.000074 1.000000 -0.000185
vn -0.000363 1.000000 -0.000394
vn 0.000157 1.000000 -0.000315
vn -0.005429 0.999982 -0.002508
vn -0.023803 0.999560 -0.017690
vn -0.054920 0.995104 -0.082166
vn -0.052401 0.981513 -0.184084
vn -0.002899 0.950787 -0.309832
vn 0.061670 0.890860 -0.450073
vn 0.135350 0.827569 -0.544803
vn 0.800933 0.392767 -0.451930
vn 0.571371 -0.778118 0.260898
vn 0.627961 -0.757160 -0.179928
vn -0.014680 -0.999556 -0.025931
vn -0.000279 -1.000000 0.000226
vn -0.001878 0.999960 -0.008736
vn -0.005979 0.999936 -0.009588
vn -0.000046 0.999995 -0.003103
vn 0.000159 1.000000 -0.000091
vn 0.000076 1.000000 0.000381
vn 0.000049 1.000000 0.000165
vn 0.000025 1.000000 0.000049
vn -0.000249 1.000000 -0.000511
vn 0.000059 0.999999 -0.001025
vn -0.001942 0.999995 -0.002342
vn -0.000167 0.999994 -0.003577
vn 0.002537 0.999983 -0.005273
vn -0.003803 0.999767 -0.021270
vn 0.001824 0.996585 -0.082558
vn 0.060825 0.965529 -0.253088
vn 0.186990 0.829906 -0.525634
vn 0.509977 0.604750 -0.611719
vn 0.681788 -0.658435 0.318793
vn 0.843499 -0.439974 0.308112
vn 0.815965 -0.541836 -0.201533
vn -0.013770 -0.999843 0.011144
usemtl aiStandardSurface1SG
f 1/1/1 2/2/2 23/23/3 22/22/4
f 2/2/2 3/3/5 24/24/6 23/23/3
f 3/3/5 4/4/7 25/25/8 24/24/6
f 4/4/7 5/5/9 26/26/10 25/25/8
f 5/5/9 6/6/11 27/27/12 26/26/10
f 6/6/11 7/7/13 28/28/14 27/27/12
f 7/7/13 8/8/15 29/29/16 28/28/14
f 8/8/15 9/9/17 30/30/18 29/29/16
f 9/9/17 10/10/19 31/31/20 30/30/18
f 10/10/19 11/11/21 32/32/22 31/31/20
f 11/11/21 12/12/23 33/33/24 32/32/22
f 12/12/23 13/13/25 34/34/26 33/33/24
f 13/13/25 14/14/27 35/35/28 34/34/26
f 14/14/27 15/15/29 36/36/30 35/35/28
f 15/15/29 16/16/31 37/37/32 36/36/30
f 16/16/31 17/17/33 38/38/34 37/37/32
f 17/17/33 18/18/35 39/39/36 38/38/34
f 18/18/35 19/19/37 40/40/38 39/39/36
f 19/19/37 20/20/39 41/41/40 40/40/38
f 20/20/39 21/21/41 42/42/42 41/41/40
f 22/22/4 23/23/3 44/44/43 43/43/44
f 23/23/3 24/24/6 45/45/45 44/44/43
f 24/24/6 25/25/8 46/46/46 45/45/45
f 25/25/8 26/26/10 47/47/47 46/46/46
f 26/26/10 27/27/12 48/48/48 47/47/47
f 27/27/12 28/28/14 49/49/49 48/48/48
f 28/28/14 29/29/16 50/50/50 49/49/49
f 29/29/16 30/30/18 51/51/51 50/50/50
f 30/30/18 31/31/20 52/52/52 51/51/51
f 31/31/20 32/32/22 53/53/53 52/52/52
f 32/32/22 33/33/24 54/54/54 53/53/53
f 33/33/24 34/34/26 55/55/55 54/54/54
f 34/34/26 35/35/28 56/56/56 55/55/55
f 35/35/28 36/36/30 57/57/57 56/56/56
f 36/36/30 37/37/32 58/58/58 57/57/57
f 37/37/32 38/38/34 59/59/59 58/58/58
f 38/38/34 39/39/36 60/60/60 59/59/59
f 39/39/36 40/40/38 61/61/61 60/60/60
f 40/40/38 41/41/40 62/62/62 61/61/61
f 41/41/40 42/42/42 63/63/63 62/62/62
f 43/43/44 44/44/43 65/65/64 64/64/65
f 44/44/43 45/45/45 66/66/66 65/65/64
f 45/45/45 46/46/46 67/67/67 66/66/66
f 46/46/46 47/47/47 68/68/68 67/67/67
f 47/47/47 48/48/48 69/69/69 68/68/68
f 48/48/48 49/49/49 70/70/70 69/69/69
f 49/49/49 50/50/50 71/71/71 70/70/70
f 50/50/50 51/51/51 72/72/72 71/71/71
f 51/51/51 52/52/52 73/73/73 72/72/72
f 52/52/52 53/53/53 74/74/74 73/73/73
f 53/53/53 54/54/54 75/75/75 74/74/74
f 54/54/54 55/55/55 76/76/76 75/75/75
f 55/55/55 56/56/56 77/77/77 76/76/76
f 56/56/56 57/57/57 78/78/78 77/77/77
f 57/57/57 58/58/58 79/79/79 78/78/78
f 58/58/58 59/59/59 80/80/80 79/79/79
f 59/59/59 60/60/60 81/81/81 80/80/80
f 60/60/60 61/61/61 82/82/82 81/81/81
f 61/61/61 62/62/62 83/83/83 82/82/82
f 62/62/62 63/63/63 84/84/84 83/83/83
f 64/64/65 65/65/64 86/86/85 85/85/86
f 65/65/64 66/66/66 87/87/87 86/86/85
f 66/66/66 67/67/67 88/88/88 87/87/87
f 67/67/67 68/68/68 89/89/89 88/88/88
f 68/68/68 69/69/69 90/90/90 89/89/89
f 69/69/69 70/70/70 91/91/91 90/90/90
f 70/70/70 71/71/71 92/92/92 91/91/91
f 71/71/71 72/72/72 93/93/93 92/92/92
f 72/72/72 73/73/73 94/94/94 93/93/93
f 73/73/73 74/74/74 95/95/95 94/94/94
f 74/74/74 75/75/75 96/96/96 95/95/95
f 75/75/75 76/76/76 97/97/97 96/96/96
f 76/76/76 77/77/77 98/98/98 97/97/97
f 77/77/77 78/78/78 99/99/99 98/98/98
f 78/78/78 79/79/79 100/100/100 99/99/99
f 79/79/79 80/80/80 101/101/101 100/100/100
f 80/80/80 81/81/81 102/102/102 101/101/101
f 81/81/81 82/82/82 103/103/103 102/102/102
f 82/82/82 83/83/83 104/104/104 103/103/103
f 83/83/83 84/84/84 105/105/105 104/104/104
f 85/85/86 86/86/85 107/107/106 106/106/107
f 86/86/85 87/87/87 108/108/108 107/107/106
f 87/87/87 88/88/88 109/109/109 108/108/108
f 88/88/88 89/89/89 110/110/110 109/109/109
f 89/89/89 90/90/90 111/111/111 110/110/110
f 90/90/90 91/91/91 112/112/112 111/111/111
f 91/91/91 92/92/92 113/113/113 112/112/112
f 92/92/92 93/93/93 114/114/114 113/113/113
f 93/93/93 94/94/94 115/115/115 114/114/114
f 94/94/94 95/95/95 116/116/116 115/115/115
f 95/95/95 96/96/96 117/117/117 116/116/116
f 96/96/96 97/97/97 118/118/118 117/117/117
f 97/97/97 98/98/98 119/119/119 118/118/118
f 98/98/98 99/99/99 120/120/120 119/119/119
f 99/99/99 100/100/100 121/121/121 120/120/120
f 100/100/100 101/101/101 122/122/122 121/121/121
f 101/101/101 102/102/102 123/123/123 122/122/122
f 102/102/102 103/103/103 124/124/124 123/123/123
f 103/103/103 104/104/104 125/125/125 124/124/124
f 104/104/104 105/105/105 126/126/126 125/125/125
f 106/106/107 107/107/106 128/128/127 127/127/128
f 107/107/106 108/108/108 129/129/129 128/128/127
f 108/108/108 109/109/109 130/130/130 129/129/129
f 109/109/109 110/110/110 131/131/131 130/130/130
f 110/110/110 111/111/111 132/132/132 131/131/131
f 111/111/111 112/112/112 133/133/133 132/132/132
f 112/112/112 113/113/113 134/134/134 133/133/133
f 113/113/113 114/114/114 135/135/135 134/134/134
f 114/114/114 115/115/115 136/136/136 135/135/135
f 115/115/115 116/116/116 137/137/137 136/136/136
f 116/116/116 117/117/117 138/138/138 137/137/137
f 117/117/117 118/118/118 139/139/139 138/138/138
f 118/118/118 119/119/119 140/140/140 139/139/139
f 119/119/119 120/120/120 141/141/141 140/140/140
f 120/120/120 121/121/121 142/142/142 141/141/141
f 121/121/121 122/122/122 143/143/143 142/142/142
f 122/122/122 123/123/123 144/144/144 143/143/143
f 123/123/123 124/124/124 145/145/145 144/144/144
f 124/124/124 125/125/125 146/146/146 145/145/145
f 125/125/125 126/126/126 147/147/147 146/146/146
f 127/127/128 128/128/127 149/149/148 148/148/149
f 128/128/127 129/129/129 150/150/150 149/149/148
f 129/129/129 130/130/130 151/151/151 150/150/150
f 130/130/130 131/131/131 152/152/152 151/151/151
f 131/131/131 132/132/132 153/153/153 152/152/152
f 132/132/132 133/133/133 154/154/154 153/153/153
f 133/133/133 134/134/134 155/155/155 154/154/154
f 134/134/134 135/135/135 156/156/156 155/155/155
f 135/135/135 136/136/136 157/157/157 156/156/156
f 136/136/136 137/137/137 158/158/158 157/157/157
f 137/137/137 138/138/138 159/159/159 158/158/158
f 138/138/138 139/139/139 160/160/160 159/159/159
f 139/139/139 140/140/140 161/161/161 160/160/160
f 140/140/140 141/141/141 162/162/162 161/161/161
f 141/141/141 142/142/142 163/163/163 162/162/162
f 142/142/142 143/143/143 164/164/164 163/163/163
f 143/143/143 144/144/144 165/165/165 164/164/164
f 144/144/144 145/145/145 166/166/166 165/165/165
f 145/145/145 146/146/146 167/167/167 166/166/166
f 146/146/146 147/147/147 168/168/168 167/167/167
f 148/148/149 149/149/148 170/170/169 169/169/170
f 149/149/148 150/150/150 171/171/171 170/170/169
f 150/150/150 151/151/151 172/172/172 171/171/171
f 151/151/151 152/152/152 173/173/173 172/172/172
f 152/152/152 153/153/153 174/174/174 173/173/173
f 153/153/153 154/154/154 175/175/175 174/174/174
f 154/154/154 155/155/155 176/176/176 175/175/175
f 155/155/155 156/156/156 177/177/177 176/176/176
f 156/156/156 157/157/157 178/178/178 177/177/177
f 157/157/157 158/158/158 179/179/179 178/178/178
f 158/158/158 159/159/159 180/180/180 179/179/179
f 159/159/159 160/160/160 181/181/181 180/180/180
f 160/160/160 161/161/161 182/182/182 181/181/181
f 161/161/161 162/162/162 183/183/183 182/182/182
f 162/162/162 163/163/163 184/184/184 183/183/183
f 163/163/163 164/164/164 185/185/185 184/184/184
f 164/164/164 165/165/165 186/186/186 185/185/185
f 165/165/165 166/166/166 187/187/187 186/186/186
f 166/166/166 167/167/167 188/188/188 187/187/187
f 167/167/167 168/168/168 189/189/189 188/188/188
f 169/169/170 170/170/169 191/191/190 190/190/191
f 170/170/169 171/171/171 192/192/192 191/191/190
f 171/171/171 172/172/172 193/193/193 192/192/192
f 172/172/172 173/173/173 194/194/194 193/193/193
f 173/173/173 174/174/174 195/195/195 194/194/194
f 174/174/174 175/175/175 196/196/196 195/195/195
f 175/175/175 176/176/176 197/197/197 196/196/196
f 176/176/176 177/177/177 198/198/198 197/197/197
f 177/177/177 178/178/178 199/199/199 198/198/198
f 178/178/178 179/179/179 200/200/200 199/199/199
f 179/179/179 180/180/180 201/201/201 200/200/200
f 180/180/180 181/181/181 202/202/202 201/201/201
f 181/181/181 182/182/182 203/203/203 202/202/202
f 182/182/182 183/183/183 204/204/204 203/203/203
f 183/183/183 184/184/184 205/205/205 204/204/204
f 184/184/184 185/185/185 206/206/206 205/205/205
f 185/185/185 186/186/186 207/207/207 206/206/206
f 186/186/186 187/187/187 208/208/208 207/207/207
f 187/187/187 188/188/188 209/209/209 208/208/208
f 188/188/188 189/189/189 210/210/210 209/209/209
f 190/190/191 191/191/190 212/212/211 211/211/212
f 191/191/190 192/192/192 213/213/213 212/212/211
f 192/192/192 193/193/193 214/214/214 213/213/213
f 193/193/193 194/194/194 215/215/215 214/214/214
f 194/194/194 195/195/195 216/216/216 215/215/215
f 195/195/195 196/196/196 217/217/217 216/216/216
f 196/196/196 197/197/197 218/218/218 217/217/217
f 197/197/197 198/198/198 219/219/219 218/218/218
f 198/198/198 199/199/199 220/220/220 219/219/219
f 199/199/199 200/200/200 221/221/221 220/220/220
f 200/200/200 201/201/201 222/222/222 221/221/221
f 201/201/201 202/202/202 223/223/223 222/222/222
f 202/202/202 203/203/203 224/224/224 223/223/223
f 203/203/203 204/204/204 225/225/225 224/224/224
f 204/204/204 205/205/205 226/226/226 225/225/225
f 205/205/205 206/206/206 227/227/227 226/226/226
f 206/206/206 207/207/207 228/228/228 227/227/227
f 207/207/207 208/208/208 229/229/229 228/228/228
f 208/208/208 209/209/209 230/230/230 229/229/229
f 209/209/209 210/210/210 231/231/231 230/230/230
f 211/211/212 212/212/211 233/233/232 232/232/233
f 212/212/211 213/213/213 234/234/234 233/233/232
f 213/213/213 214/214/214 235/235/235 234/234/234
f 214/214/214 215/215/215 236/236/236 235/235/235
f 215/215/215 216/216/216 237/237/237 236/236/236
f 216/216/216 217/217/217 238/238/238 237/237/237
f 217/217/217 218/218/218 239/239/239 238/238/238
f 218/218/218 219/219/219 240/240/240 239/239/239
f 219/219/219 220/220/220 241/241/241 240/240/240
f 220/220/220 221/221/221 242/242/242 241/241/241
f 221/221/221 222/222/222 243/243/243 242/242/242
f 222/222/222 223/223/223 244/244/244 243/243/243
f 223/223/223 224/224/224 245/245/245 244/244/244
f 224/224/224 225/225/225 246/246/246 245/245/245
f 225/225/225 226/226/226 247/247/247 246/246/246
f 226/226/226 227/227/227 248/248/248 247/247/247
f 227/227/227 228/228/228 249/249/249 248/248/248
f 228/228/228 229/229/229 250/250/250 249/249/249
f 229/229/229 230/230/230 251/251/251 250/250/250
f 230/230/230 231/231/231 252/252/252 251/251/251
f 232/232/233 233/233/232 254/254/253 253/253/254
f 233/233/232 234/234/234 255/255/255 254/254/253
f 234/234/234 235/235/235 256/256/256 255/255/255
f 235/235/235 236/236/236 257/257/257 256/256/256
f 236/236/236 237/237/237 258/258/258 257/257/257
f 237/237/237 238/238/238 259/259/259 258/258/258
f 238/238/238 239/239/239 260/260/260 259/259/259
f 239/239/239 240/240/240 261/261/261 260/260/260
f 240/240/240 241/241/241 262/262/262 261/261/261
f 241/241/241 242/242/242 263/263/263 262/262/262
f 242/242/242 243/243/243 264/264/264 263/263/263
f 243/243/243 244/244/244 265/265/265 264/264/264
f 244/244/244 245/245/245 266/266/266 265/265/265
f 245/245/245 246/246/246 267/267/267 266/266/266
f 246/246/246 247/247/247 268/268/268 267/267/267
f 247/247/247 248/248/248 269/269/269 268/268/268
f 248/248/248 249/249/249 270/270/270 269/269/269
f 249/249/249 250/250/250 271/271/271 270/270/270
f 250/250/250 251/251/251 272/272/272 271/271/271
f 251/251/251 252/252/252 273/273/273 272/272/272
f 253/253/254 254/254/253 275/275/274 274/274/275
f 254/254/253 255/255/255 276/276/276 275/275/274
f 255/255/255 256/256/256 277/277/277 276/276/276
f 256/256/256 257/257/257 278/278/278 277/277/277
f 257/257/257 258/258/258 279/279/279 278/278/278
f 258/258/258 259/259/259 280/280/280 279/279/279
f 259/259/259 260/260/260 281/281/281 280/280/280
f 260/260/260 261/261/261 282/282/282 281/281/281
f 261/261/261 262/262/262 283/283/283 282/282/282
f 262/262/262 263/263/263 284/284/284 283/283/283
f 263/263/263 264/264/264 285/285/285 284/284/284
f 264/264/264 265/265/265 286/286/286 285/285/285
f 265/265/265 266/266/266 287/287/287 286/286/286
f 266/266/266 267/267/267 288/288/288 287/287/287
f 267/267/267 268/268/268 289/289/289 288/288/288
f 268/268/268 269/269/269 290/290/290 289/289/289
f 269/269/269 270/270/270 291/291/291 290/290/290
f 270/270/270 271/271/271 292/292/292 291/291/291
f 271/271/271 272/272/272 293/293/293 292/292/292
f 272/272/272 273/273/273 294/294/294 293/293/293
f 274/274/275 275/275/274 296/296/295 295/295/296
f 275/275/274 276/276/276 297/297/297 296/296/295
f 276/276/276 277/277/277 298/298/298 297/297/297
f 277/277/277 278/278/278 299/299/299 298/298/298
f 278/278/278 279/279/279 300/300/300 299/299/299
f 279/279/279 280/280/280 301/301/301 300/300/300
f 280/280/280 281/281/281 302/302/302 301/301/301
f 281/281/281 282/282/282 303/303/303 302/302/302
f 282/282/282 283/283/283 304/304/304 303/303/303
f 283/283/283 284/284/284 305/305/305 304/304/304
f 284/284/284 285/285/285 306/306/306 305/305/305
f 285/285/285 286/286/286 307/307/307 306/306/306
f 286/286/286 287/287/287 308/308/308 307/307/307
f 287/287/287 288/288/288 309/309/309 308/308/308
f 288/288/288 289/289/289 310/310/310 309/309/309
f 289/289/289 290/290/290 311/311/311 310/310/310
f 290/290/290 291/291/291 312/312/312 311/311/311
f 291/291/291 292/292/292 313/313/313 312/312/312
f 292/292/292 293/293/293 314/314/314 313/313/313
f 293/293/293 294/294/294 315/315/315 314/314/314
f 295/295/296 296/296/295 317/317/316 316/316/317
f 296/296/295 297/297/297 318/318/318 317/317/316
f 297/297/297 298/298/298 319/319/319 318/318/318
f 298/298/298 299/299/299 320/320/320 319/319/319
f 299/299/299 300/300/300 321/321/321 320/320/320
f 300/300/300 301/301/301 322/322/322 321/321/321
f 301/301/301 302/302/302 323/323/323 322/322/322
f 302/302/302 303/303/303 324/324/324 323/323/323
f 303/303/303 304/304/304 325/325/325 324/324/324
f 304/304/304 305/305/305 326/326/326 325/325/325
f 305/305/305 306/306/306 327/327/327 326/326/326
f 306/306/306 307/307/307 328/328/328 327/327/327
f 307/307/307 308/308/308 329/329/329 328/328/328
f 308/308/308 309/309/309 330/330/330 329/329/329
f 309/309/309 310/310/310 331/331/331 330/330/330
f 310/310/310 311/311/311 332/332/332 331/331/331
f 311/311/311 312/312/312 333/333/333 332/332/332
f 312/312/312 313/313/313 334/334/334 333/333/333
f 313/313/313 314/314/314 335/335/335 334/334/334
f 314/314/314 315/315/315 336/336/336 335/335/335
f 316/316/317 317/317/316 338/338/337 337/337/338
f 317/317/316 318/318/318 339/339/339 338/338/337
f 318/318/318 319/319/319 340/340/340 339/339/339
f 319/319/319 320/320/320 341/341/341 340/340/340
f 320/320/320 321/321/321 342/342/342 341/341/341
f 321/321/321 322/322/322 343/343/343 342/342/342
f 322/322/322 323/323/323 344/344/344 343/343/343
f 323/323/323 324/324/324 345/345/345 344/344/344
f 324/324/324 325/325/325 346/346/346 345/345/345
f 325/325/325 326/326/326 347/347/347 346/346/346
f 326/326/326 327/327/327 348/348/348 347/347/347
f 327/327/327 328/328/328 349/349/349 348/348/348
f 328/328/328 329/329/329 350/350/350 349/349/349
f 329/329/329 330/330/330 351/351/351 350/350/350
f 330/330/330 331/331/331 352/352/352 351/351/351
f 331/331/331 332/332/332 353/353/353 352/352/352
f 332/332/332 333/333/333 354/354/354 353/353/353
f 333/333/333 334/334/334 355/355/355 354/354/354
f 334/334/334 335/335/335 356/356/356 355/355/355
f 335/335/335 336/336/336 357/357/357 356/356/356
f 337/337/338 338/338/337 359/359/358 358/358/359
f 338/338/337 339/339/339 360/360/360 359/359/358
f 339/339/339 340/340/340 361/361/361 360/360/360
f 340/340/340 341/341/341 362/362/362 361/361/361
f 341/341/341 342/342/342 363/363/363 362/362/362
f 342/342/342 343/343/343 364/364/364 363/363/363
f 343/343/343 344/344/344 365/365/365 364/364/364
f 344/344/344 345/345/345 366/366/366 365/365/365
f 345/345/345 346/346/346 367/367/367 366/366/366
f 346/346/346 347/347/347 368/368/368 367/367/367
f 347/347/347 348/348/348 369/369/369 368/368/368
f 348/348/348 349/349/349 370/370/370 369/369/369
f 349/349/349 350/350/350 371/371/371 370/370/370
f 350/350/350 351/351/351 372/372/372 371/371/371
f 351/351/351 352/352/352 373/373/373 372/372/372
f 352/352/352 353/353/353 374/374/374 373/373/373
f 353/353/353 354/354/354 375/375/375 374/374/374
f 354/354/354 355/355/355 376/376/376 375/375/375
f 355/355/355 356/356/356 377/377/377 376/376/376
f 356/356/356 357/357/357 378/378/378 377/377/377
f 358/358/359 359/359/358 380/380/379 379/379/380
f 359/359/358 360/360/360 381/381/381 380/380/379
f 360/360/360 361/361/361 382/382/382 381/381/381
f 361/361/361 362/362/362 383/383/383 382/382/382
f 362/362/362 363/363/363 384/384/384 383/383/383
f 363/363/363 364/364/364 385/385/385 384/384/384
f 364/364/364 365/365/365 386/386/386 385/385/385
f 365/365/365 366/366/366 387/387/387 386/386/386
f 366/366/366 367/367/367 388/388/388 387/387/387
f 367/367/367 368/368/368 389/389/389 388/388/388
f 368/368/368 369/369/369 390/390/390 389/389/389
f 369/369/369 370/370/370 391/391/391 390/390/390
f 370/370/370 371/371/371 392/392/392 391/391/391
f 371/371/371 372/372/372 393/393/393 392/392/392
f 372/372/372 373/373/373 394/394/394 393/393/393
f 373/373/373 374/374/374 395/395/395 394/394/394
f 374/374/374 375/375/375 396/396/396 395/395/395
f 375/375/375 376/376/376 397/397/397 396/396/396
f 376/376/376 377/377/377 398/398/398 397/397/397
f 377/377/377 378/378/378 399/399/399 398/398/398
f 379/379/380 380/380/379 401/401/400 400/400/401
f 380/380/379 381/381/381 402/402/402 401/401/400
f 381/381/381 382/382/382 403/403/403 402/402/402
f 382/382/382 383/383/383 404/404/404 403/403/403
f 383/383/383 384/384/384 405/405/405 404/404/404
f 384/384/384 385/385/385 406/406/406 405/405/405
f 385/385/385 386/386/386 407/407/407 406/406/406
f 386/386/386 387/387/387 408/408/408 407/407/407
f 387/387/387 388/388/388 409/409/409 408/408/408
f 388/388/388 389/389/389 410/410/410 409/409/409
f 389/389/389 390/390/390 411/411/411 410/410/410
f 390/390/390 391/391/391 412/412/412 411/411/411
f 391/391/391 392/392/392 413/413/413 412/412/412
f 392/392/392 393/393/393 414/414/414 413/413/413
f 393/393/393 394/394/394 415/415/415 414/414/414
f 394/394/394 395/395/395 416/416/416 415/415/415
f 395/395/395 396/396/396 417/417/417 416/416/416
f 396/396/396 397/397/397 418/418/418 417/417/417
f 397/397/397 398/398/398 419/419/419 418/418/418
f 398/398/398 399/399/399 420/420/420 419/419/419
f 400/400/401 401/401/400 422/422/421 421/421/422
f 401/401/400 402/402/402 423/423/423 422/422/421
f 402/402/402 403/403/403 424/424/424 423/423/423
f 403/403/403 404/404/404 425/425/425 424/424/424
f 404/404/404 405/405/405 426/426/426 425/425/425
f 405/405/405 406/406/406 427/427/427 426/426/426
f 406/406/406 407/407/407 428/428/428 427/427/427
f 407/407/407 408/408/408 429/429/429 428/428/428
f 408/408/408 409/409/409 430/430/430 429/429/429
f 409/409/409 410/410/410 431/431/431 430/430/430
f 410/410/410 411/411/411 432/432/432 431/431/431
f 411/411/411 412/412/412 433/433/433 432/432/432
f 412/412/412 413/413/413 434/434/434 433/433/433
f 413/413/413 414/414/414 435/435/435 434/434/434
f 414/414/414 415/415/415 436/436/436 435/435/435
f 415/415/415 416/416/416 437/437/437 436/436/436
f 416/416/416 417/417/417 438/438/438 437/437/437
f 417/417/417 418/418/418 439/439/439 438/438/438
f 418/418/418 419/419/419 440/440/440 439/439/439
f 419/419/419 420/420/420 441/441/441 440/440/440
